<?xml version="1.0" encoding="utf-8"?>
<!-- Generator: Adobe Illustrator 24.2.0, SVG Export Plug-In . SVG Version: 6.00 Build 0)  -->
<svg version="1.1" id="Layer_1" xmlns="http://www.w3.org/2000/svg" xmlns:xlink="http://www.w3.org/1999/xlink" x="0px" y="0px"
	 viewBox="0 0 100.56 96.6" style="enable-background:new 0 0 100.56 96.6;" xml:space="preserve">
<style type="text/css">
	.st0{fill:none;stroke:#FFDE17;stroke-width:3;stroke-miterlimit:10;}
	.st1{fill:none;stroke:#F9ED32;stroke-width:3;stroke-miterlimit:10;}
	.st2{fill:none;stroke:#92278F;stroke-width:3;stroke-miterlimit:10;}
	.st3{fill:none;stroke:#9E1F63;stroke-width:3;stroke-miterlimit:10;}
	.st4{fill:none;stroke:#662D91;stroke-width:3;stroke-miterlimit:10;}
	.st5{fill:none;stroke:#D7DF23;stroke-width:3;stroke-miterlimit:10;}
	.st6{fill:#9E1F63;}
	.st7{fill:#00A79D;}
</style>
<g>
	<g>
		<line class="st0" x1="1.5" y1="48.6" x2="37.11" y2="48.6"/>
		<line class="st1" x1="37.11" y1="0.61" x2="37.11" y2="96.6"/>
	</g>
	<g>
		<line class="st2" x1="76.44" y1="50.33" x2="76.44" y2="96.6"/>
		<line class="st3" x1="99.19" y1="0.61" x2="76.44" y2="51.8"/>
		<line class="st4" x1="53.7" y1="0.61" x2="76.44" y2="51.8"/>
	</g>
	<line class="st5" x1="1.5" y1="0.61" x2="1.5" y2="96.6"/>
</g>
<g>
	<path class="st6" d="M10.21,128.47c0.74-0.91,1.47-1.77,2.19-2.57c0.71-0.8,1.38-1.6,2.01-2.4c1.37-1.54,2.67-2.67,3.9-3.39
		c1.23-0.71,2.38-1.07,3.47-1.07c4.4,0,6.68,3.06,6.86,9.17c0,0.91-0.04,2-0.13,3.26c-0.09,1.26-0.19,2.71-0.3,4.37
		c-0.12,0.69-0.19,1.33-0.21,1.93c-0.03,0.6-0.07,1.13-0.13,1.58l0.34-0.17l0.51,0.69c0.29-0.29,0.86-0.67,1.71-1.16
		c0.86-0.48,1.91-0.99,3.17-1.5l0.43,0.69c-4.29,2.8-6.43,4.29-6.43,4.46c0,0.29-0.03,0.92-0.09,1.89
		c-0.06,0.97-0.17,2.29-0.34,3.94c-0.12,0.63-0.17,1.21-0.17,1.76c0,0.54,0,1.07,0,1.59c0,0.46,0,0.92,0,1.37
		c0,0.46,0.06,0.89,0.17,1.29c0.69,4.51,3.63,7.34,8.83,8.49c0.17,0,0.39,0.01,0.64,0.04c0.26,0.03,0.41,0.04,0.47,0.04
		c-0.12,0.23-0.37,0.63-0.77,1.2c-0.4,0.57-0.8,1.09-1.2,1.54c-0.17,0.23-0.34,0.46-0.51,0.69c-0.17,0.23-0.29,0.37-0.34,0.43v-0.09
		c-0.97,0.97-1.89,1.7-2.74,2.19c-0.86,0.49-1.77,0.73-2.74,0.73c-4.46,0-7-5.11-7.63-15.34c0-0.63-0.01-1.24-0.04-1.84
		c-0.03-0.6-0.04-1.21-0.04-1.84c0-0.86,0-1.63,0-2.31c0-0.69,0.03-1.51,0.08-2.49c-0.51,0.29-0.97,0.54-1.37,0.77
		c-0.4,0.23-0.83,0.49-1.29,0.77h0.08c-2.46,1.43-4.86,2.64-7.2,3.64c-2.34,1-4.49,1.79-6.43,2.36c0.06,0.46,0.17,0.89,0.34,1.29
		c0.74,5.09,2.23,7.92,4.46,8.49l-2.91,3.6c-1.43,1.49-2.89,2.49-4.37,3c-1.89-3.43-3.14-7.08-3.77-10.97
		c-0.11-0.8-0.2-1.61-0.26-2.44c-0.06-0.83-0.12-1.81-0.17-2.96c-1.6-0.17-2.63-0.6-3.09-1.29c-0.23-0.4-0.29-0.86-0.17-1.37
		c0.06-0.29,0.09-0.57,0.09-0.86c0-0.8,0.18-1.71,0.56-2.74c0.37-1.03,0.96-2.17,1.76-3.43v0.09c0.23-0.29,0.48-0.66,0.77-1.11
		c0.29-0.46,0.37-0.63,0.26-0.51c0-1.2,0-2.23,0-3.08c0-0.86-0.03-1.54-0.09-2.06c-0.17-3.71-0.77-7.06-1.8-10.03l-0.34,0.34v-0.09
		c-0.46,0.57-1.17,0.86-2.14,0.86c0.17-0.69,0.5-1.47,0.99-2.36c0.49-0.88,1.21-1.9,2.19-3.04c1.77-2.06,2.8-3.09,3.09-3.09
		c2.74,0,4.26,4.03,4.54,12.08c0.11,3.89-0.06,7.86-0.51,11.91c0,0.51,0.01,1.13,0.04,1.84c0.03,0.72,0.07,1.36,0.13,1.93
		c0.29,0.06,0.53,0.07,0.73,0.04c0.2-0.03,0.44-0.04,0.73-0.04c2.86,0,7.06-1.17,12.6-3.51v0.08c0.29-0.17,0.61-0.36,0.99-0.56
		c0.37-0.2,0.76-0.39,1.16-0.56l-0.08,0.09c-0.29,0.23-0.32,0.29-0.09,0.17c0.23-0.11,0.48-0.23,0.77-0.34
		c0.06-0.63,0.1-1.2,0.13-1.71c0.03-0.51,0.07-1.08,0.13-1.71c0-1.66-0.01-3.14-0.04-4.46c-0.03-1.31-0.1-2.37-0.21-3.17
		c-0.29-2-0.74-3.56-1.37-4.67c-0.63-1.11-1.34-1.67-2.14-1.67c-1.83,0-3.34,0.57-4.54,1.71c-0.29,0.29-0.57,0.61-0.86,0.99
		c-0.29,0.37-0.66,0.84-1.11,1.41l-0.77-0.09L10.21,128.47z"/>
	<path class="st7" d="M62.15,128.47c0.29,2.34,0.54,4.23,0.77,5.66c0.23,1.43,0.4,2.37,0.51,2.83c0.74,3.43,1.73,6.24,2.96,8.44
		c1.23,2.2,2.67,3.7,4.33,4.5c0.17-0.06,0.39-0.14,0.64-0.26c0.26-0.11,0.44-0.2,0.56-0.26c0.74-0.23,1.4-0.43,1.97-0.6
		c0.57-0.17,1.14-0.34,1.71-0.51c-0.29-1.49-0.51-3.01-0.69-4.59c-0.17-1.57-0.26-3.18-0.26-4.84c0-1.6,0.07-3.2,0.21-4.8
		c0.14-1.6,0.36-3.23,0.64-4.89c2-1.26,3.6-2.23,4.8-2.91c1.2-0.69,2.06-1.14,2.57-1.37c-0.12,1.14-0.2,2.2-0.26,3.17
		c-0.06,0.97-0.09,1.89-0.09,2.74c0,7.66,1.71,15.34,5.14,23.06H87.6c0.29,0.57,0.56,1.07,0.81,1.5s0.44,0.81,0.56,1.16
		c0.46,0.86,0.91,1.83,1.37,2.91c0.46,1.09,0.94,2.17,1.46,3.26c1.26,2.8,1.66,5.09,1.2,6.86c-0.17,0.63-0.6,1.41-1.29,2.36
		c-0.69,0.94-1.6,1.98-2.74,3.13c-1.49,1.49-3,2.84-4.54,4.07c-1.54,1.23-3.17,2.41-4.89,3.56c-7.26,4.57-14.2,6.86-20.83,6.86
		c-2.63,0-5.23-0.34-7.8-1.03c-6.23-1.66-9.97-4.6-11.23-8.83c-0.12-0.46-0.21-0.9-0.3-1.33c-0.09-0.43-0.13-0.93-0.13-1.5
		c0-1.14,0.17-2.29,0.51-3.43c0.51-2.17,2.11-4.06,4.8-5.66h-0.09c1.14-0.63,2.44-1.2,3.9-1.71c1.46-0.51,3.1-0.91,4.93-1.2
		l0.17,0.69c-0.29,0.17-0.76,0.44-1.41,0.81c-0.66,0.37-1.47,0.81-2.44,1.33h0.09c-1.32,0.8-2.17,1.66-2.57,2.57
		c-0.29,1.03-0.43,1.97-0.43,2.83c0,0.97,0.23,2.08,0.69,3.34c0.69,1.71,1.81,3.21,3.39,4.5c1.57,1.29,3.61,2.24,6.13,2.87
		c3.54,0.97,6.69,1.46,9.43,1.46c2.46,0,4.74-0.36,6.86-1.07c2.11-0.71,4.08-1.73,5.91-3.04c0.97-0.69,1.86-1.44,2.66-2.27
		c0.8-0.83,1.51-1.73,2.14-2.7c0.46-0.63,0.81-1.2,1.07-1.71c0.26-0.51,0.44-0.97,0.56-1.37c0.17-0.69,0.21-1.47,0.13-2.36
		c-0.09-0.89-0.27-1.81-0.56-2.79c-0.29-0.8-0.67-1.69-1.16-2.66c-0.49-0.97-1.07-2-1.76-3.09c-0.74-1.2-1.36-2.23-1.84-3.08
		c-0.49-0.86-0.87-1.51-1.16-1.97c-0.12-0.11-0.23-0.34-0.34-0.69c-0.12-0.17-0.2-0.31-0.26-0.43c-0.63-1.03-1.13-2.01-1.5-2.96
		c-0.37-0.94-0.7-1.79-0.99-2.53c-0.86,0.57-1.71,1.29-2.57,2.14h0.08c-0.23,0.23-0.49,0.47-0.77,0.73
		c-0.29,0.26-0.54,0.5-0.77,0.73c-0.46,0.4-0.9,0.81-1.33,1.24s-0.96,0.96-1.58,1.58c-1.09,1.09-2.31,1.63-3.69,1.63
		c-1.26,0-2.54-0.48-3.86-1.46c-1.32-0.91-2.46-2.26-3.43-4.03c-0.97-1.77-1.63-3.86-1.97-6.26c-0.34-2.4-0.6-4.67-0.77-6.81
		c-0.17-2.14-0.23-4.04-0.17-5.7c0.06-1.31,0.07-2.36,0.04-3.13c-0.03-0.77-0.07-1.38-0.13-1.84c-4.97,3.03-7.54,4.54-7.71,4.54
		c-1.2-0.29-2.2-1.06-3-2.31c-0.4-0.51-0.66-0.96-0.77-1.33c-0.12-0.37-0.17-0.64-0.17-0.81c0.06-0.46,1.14-1.34,3.26-2.66
		c0.4-0.23,0.74-0.44,1.03-0.64c0.29-0.2,0.54-0.36,0.77-0.47c0.29-0.17,0.57-0.36,0.86-0.56c0.29-0.2,0.46-0.33,0.51-0.39
		c0.91,0.74,1.54,1.57,1.89,2.49c0.11,0.17,0.18,0.37,0.21,0.6c0.03,0.23,0.1,0.51,0.21,0.86c0.4-0.17,0.96-0.46,1.67-0.86
		c0.71-0.4,1.56-0.89,2.53-1.46c1.08-0.63,2.01-1.16,2.79-1.59c0.77-0.43,1.21-0.64,1.33-0.64
		C61.23,124.15,61.75,125.61,62.15,128.47z"/>
</g>
</svg>
