<?xml version="1.0" encoding="utf-8"?>
<!-- Generator: Adobe Illustrator 24.2.1, SVG Export Plug-In . SVG Version: 6.00 Build 0)  -->
<svg version="1.1" id="Layer_1" 
	xmlns="http://www.w3.org/2000/svg" 
	xmlns:xlink="http://www.w3.org/1999/xlink" x="0px" y="0px" viewBox="0 0 29.81 29.77" style="enable-background:new 0 0 29.81 29.77;" xml:space="preserve">
	<style type="text/css">
	.st0{fill:#34495E;}
	.st1{fill:#FEFEFE;}
	.st2{fill:#E64C3C;}
	.st3{fill:#243140;}
	</style>
	<g>
		<path class="st0" d="M13.96,0c0.16,0,0.31,0,0.47,0c0.12,0.05,0.23,0.05,0.35,0c0.08,0,0.16,0,0.23,0c0.12,0.05,0.23,0.05,0.35,0
		c0.14,0,0.27,0,0.41,0c0.52,0.08,1.06,0.05,1.58,0.18c1.72,0.42,3.27,1.18,4.6,2.37c1.86,1.66,2.85,3.75,3.17,6.2
		c0.06,0.5,0.05,1,0.1,1.5c0.05,0.47,0.23,0.9,0.37,1.34c0.23,0.72,0.45,1.44,0.68,2.16c0.4,1.31,1.15,2.43,1.92,3.54
		c0.47,0.67,0.99,1.29,1.41,1.99c0.15,0.25,0.19,0.52,0.22,0.8c0.02,0.21-0.1,0.34-0.27,0.44c-0.58,0.32-1.2,0.42-1.86,0.34
		c-0.51-0.07-1-0.2-1.47-0.44c-0.31-0.16-0.32-0.15-0.41,0.18c-0.35,1.26-0.84,2.46-1.54,3.56c-0.43,0.67-0.93,1.29-1.54,1.81
		c-0.06,0.05-0.1,0.11-0.15,0.17c-1.54,1.36-3.37,2.06-5.37,2.36c-0.88,0.13-1.77,0.18-2.66,0.16c-1.79-0.04-3.54-0.33-5.18-1.11
		c-0.77-0.37-1.48-0.84-2.13-1.4c-0.32-0.35-0.68-0.65-0.99-1.02C5.14,23.8,4.46,22.27,4,20.64c-0.11-0.38-0.11-0.37-0.46-0.21
		c-0.79,0.37-1.61,0.56-2.48,0.39c-0.26-0.05-0.5-0.15-0.74-0.26C0.17,20.49,0.07,20.39,0,20.24c0-0.1,0-0.19,0-0.29
		c0.05-0.54,0.34-0.95,0.65-1.37c0.72-0.96,1.43-1.93,2.04-2.96c0.53-0.9,0.85-1.88,1.15-2.88c0.13-0.43,0.25-0.86,0.41-1.27
		c0.3-0.79,0.33-1.62,0.41-2.45c0.19-2.13,0.93-4.04,2.37-5.66c1.51-1.69,3.39-2.73,5.59-3.22C13.05,0.05,13.51,0.08,13.96,0z"/>
		<path class="st1" d="M14.83,25.11c-1.51-0.03-3.01-0.29-4.39-1.05c-1.6-0.87-2.65-2.2-3.15-3.93c-0.61-2.1-0.61-4.22,0.09-6.32
		c0.1-0.29,0.2-0.59,0.38-0.84c0.21-0.3,0.22-0.58,0.15-0.92C7.65,10.88,7.55,9.69,7.68,8.5C7.81,7.34,8.1,6.25,8.95,5.39
		c1.3-1.32,3.6-1.43,5.02-0.25c0.19,0.16,0.38,0.31,0.56,0.46C14.77,5.8,15,5.8,15.25,5.62c0.22-0.16,0.45-0.31,0.65-0.49
		c1.19-1.05,2.52-1.01,3.88-0.44c1.06,0.44,1.69,1.3,2.02,2.37c0.48,1.52,0.41,3.06,0.15,4.6c-0.04,0.25-0.09,0.49-0.14,0.74
		c-0.02,0.09-0.02,0.17,0.03,0.25c0.81,1.31,1.05,2.77,1.08,4.28c0.02,1.3-0.15,2.57-0.63,3.78c-0.66,1.65-1.81,2.84-3.42,3.59
		C17.6,24.88,16.26,25.1,14.83,25.11z"/>
		<path class="st2" d="M22.51,26.05c0.31,0,0.62,0.01,0.93,0.01c0.65,0,1.06,0.37,1.06,0.94c0,0.57-0.42,0.92-1.07,0.92
		c-0.28,0-0.55,0-0.88,0c0.62,0.3,0.86,0.79,0.64,1.28c-0.15,0.35-0.43,0.58-0.81,0.57c-2.04-0.02-4.09-0.04-6.09-0.57
		c-0.43-0.11-0.85-0.26-1.24-0.48c-0.1-0.06-0.18-0.09-0.29-0.02c-0.95,0.52-2,0.69-3.06,0.84c-1.35,0.19-2.7,0.2-4.06,0.23
		c-0.6,0.01-0.97-0.22-1.09-0.7c-0.12-0.45,0.08-0.83,0.66-1.16c-0.32,0-0.59,0-0.85,0c-0.65,0-1.07-0.36-1.07-0.92
		c0-0.57,0.41-0.93,1.06-0.94c0.31,0,0.62-0.01,0.93-0.01c0.78,0.64,1.62,1.19,2.56,1.58c1.18,0.49,2.42,0.76,3.68,0.86
		c1.78,0.14,3.54,0.04,5.26-0.45c1.29-0.37,2.47-0.95,3.5-1.81C22.35,26.16,22.43,26.1,22.51,26.05z"/>
		<path class="st2" d="M14.89,11.35c0.06,0.04,0.11,0.07,0.15,0.1c0.67,0.41,1.36,0.78,2.11,1c0.18,0.05,0.2,0.12,0.12,0.29
		c-0.47,0.99-1.2,1.69-2.22,2.1c-0.11,0.04-0.21,0.05-0.33,0.01c-1.03-0.4-1.77-1.11-2.24-2.11c-0.07-0.15-0.05-0.22,0.11-0.27
		c0.76-0.23,1.47-0.59,2.14-1.01C14.79,11.41,14.84,11.38,14.89,11.35z"/>
		<path class="st3" d="M12.42,11.16c-0.68,0.01-1.24-0.55-1.25-1.22c-0.01-0.67,0.54-1.24,1.22-1.25c0.67-0.01,1.24,0.55,1.26,1.23
		C13.66,10.58,13.09,11.16,12.42,11.16z"/>
		<path class="st3" d="M18.61,9.93c0,0.68-0.56,1.24-1.24,1.24c-0.67,0-1.24-0.57-1.24-1.24c0-0.67,0.57-1.24,1.24-1.24
		C18.05,8.69,18.61,9.25,18.61,9.93z"/>
	</g>
</svg>
